# xmcd
#
# Track frame offsets:
#	150
#	23916
#	45229
#	89411
#	114905
#	137728
#	153334
#	177489
#	243508
#	292661
#	314781
#	335365
#
# Disc length: 4735 seconds
#
# Revision: 0
# Processed by: cddbd v1.5.1PL0 Copyright (c) Steve Scherf et al.
# Submitted via: dBpowerAMP V4.0
#
DISCID=9e127d0c
DTITLE=ALEX CAMPOS - VARIADO
DYEAR=2004
DGENRE=Pop
TTITLE0=ALEX CAMPOS - AL TALLER DEL MAESTRO
TTITLE1=ALEX CAMPOS - HAS MI CARACTER
TTITLE2=ALEX CAMPOS - ME ROBASTES EL CORAZON
TTITLE3=ALEX CAMPOS - HAY UNA ESPERANZA
TTITLE4=ALEX CAMPOS - BRAZOS ABIERTOS
TTITLE5=ALEX CAMPOS - BRAZOS PROFUNDOS
TTITLE6=ALEX CAMPOS - LEVANTO MIS MANOS
TTITLE7=ALEX CAMPOS - JESUS MI FIEL AMIGO
TTITLE8=ALEX CAMPOS - DIOS DE PACTO
TTITLE9=ALEX CAMPOS - AMOR, AMO, AMOR
TTITLE10=ALEX CAMPOS - FRAGANCIA CELESTIAL
TTITLE11=ALEX CAMPOS - ERES MI DUEÑO
EXTD=
EXTT0=
EXTT1=
EXTT2=
EXTT3=
EXTT4=
EXTT5=
EXTT6=
EXTT7=
EXTT8=
EXTT9=
EXTT10=
EXTT11=
PLAYORDER=
